<?xml version="1.0" standalone="no"?>
<!DOCTYPE svg PUBLIC "-//W3C//DTD SVG 20010904//EN"
 "http://www.w3.org/TR/2001/REC-SVG-20010904/DTD/svg10.dtd">
<svg version="1.0" xmlns="http://www.w3.org/2000/svg"
 width="147.000000pt" height="118.000000pt" viewBox="0 0 147.000000 118.000000"
 preserveAspectRatio="xMidYMid meet">
<metadata>
Created by potrace 1.16, written by Peter Selinger 2001-2019
</metadata>
<g transform="translate(0.000000,118.000000) scale(0.100000,-0.100000)"
fill="#000000" stroke="none">
<path d="M0 590 l0 -590 735 0 735 0 0 590 0 590 -735 0 -735 0 0 -590z m249
3 l34 -46 18 22 c10 12 27 34 37 48 14 19 25 24 49 21 l32 -3 -67 -89 -66 -89
-31 37 c-16 20 -33 36 -37 36 -5 0 -8 -29 -8 -65 0 -63 -1 -65 -25 -65 l-25 0
0 120 0 120 28 0 c20 -1 35 -12 61 -47z m291 -73 l0 -120 -25 0 c-23 0 -24 3
-27 72 l-3 72 -53 -72 c-46 -61 -58 -72 -84 -72 -16 0 -28 4 -26 9 2 6 39 59
83 120 68 93 84 110 108 110 l27 1 0 -120z m510 95 l0 -25 -189 0 c-185 0
-190 -1 -205 -22 -31 -44 -16 -97 34 -118 25 -10 34 -10 55 4 33 22 32 32 -5
40 -21 4 -30 11 -30 26 0 18 6 20 65 20 36 0 65 -3 65 -7 0 -33 -26 -86 -51
-107 -55 -46 -152 -28 -184 34 -19 37 -19 83 0 120 30 57 41 60 252 60 l193 0
0 -25z m191 8 c33 -20 36 -31 12 -48 -14 -11 -21 -10 -40 5 -26 21 -66 15 -61
-8 2 -8 24 -22 49 -31 62 -21 79 -37 79 -76 0 -46 -29 -68 -90 -69 -41 -1 -54
4 -76 25 l-27 27 23 12 c18 9 25 9 40 -5 23 -21 74 -16 78 7 2 12 -8 20 -40
28 -68 18 -88 35 -88 75 0 68 73 98 141 58z m-191 -103 c0 -17 -7 -20 -50 -20
-47 0 -50 -2 -50 -25 0 -23 3 -25 50 -25 47 0 50 -2 50 -25 0 -24 -2 -25 -75
-25 l-75 0 0 70 0 70 75 0 c68 0 75 -2 75 -20z m-584 -67 c-10 -10 -19 5 -10
18 6 11 8 11 12 0 2 -7 1 -15 -2 -18z m-289 -150 c-3 -10 -5 -2 -5 17 0 19 2
27 5 18 2 -10 2 -26 0 -35z m146 28 c3 19 5 17 6 -10 1 -33 0 -34 -18 -17 -18
17 -19 17 -24 -1 -3 -10 -5 -2 -6 17 l-1 35 19 -24 19 -25 5 25z m127 9 c-13
-9 -13 -12 3 -21 9 -5 17 -14 17 -20 0 -5 -9 -1 -21 10 -21 19 -19 41 4 41 7
0 6 -4 -3 -10z m142 -20 c-2 -16 -5 -30 -7 -30 -2 0 -5 14 -7 30 -3 19 0 30 7
30 7 0 10 -11 7 -30z m115 -17 c-3 -10 -5 -2 -5 17 0 19 2 27 5 18 2 -10 2
-26 0 -35z m134 15 c-5 -30 -6 -31 -9 -8 -2 14 -9 28 -16 32 -7 5 -3 8 10 8
18 0 20 -5 15 -32z m131 -26 c8 -9 7 -11 -6 -6 -10 4 -16 17 -15 38 2 27 2 28
6 6 3 -14 10 -31 15 -38z m159 26 c-5 -30 -6 -31 -9 -8 -2 14 -9 28 -16 32 -7
5 -3 8 10 8 18 0 20 -5 15 -32z m129 22 c-11 -7 -12 -12 -4 -17 9 -6 8 -12 -2
-21 -12 -11 -14 -8 -14 18 0 22 5 30 18 30 14 0 15 -2 2 -10z m-263 -37 c-3
-10 -5 -4 -5 12 0 17 2 24 5 18 2 -7 2 -21 0 -30z"/>
</g>
</svg>
