<svg xmlns="http://www.w3.org/2000/svg" version="1.1" xmlns:xlink="http://www.w3.org/1999/xlink" width="8.26772in" height="11.6929in"><svg xmlns="http://www.w3.org/2000/svg" xml:space="preserve" width="8.26772in" height="11.6929in" version="1.1" style="shape-rendering:geometricPrecision; text-rendering:geometricPrecision; image-rendering:optimizeQuality; fill-rule:evenodd; clip-rule:evenodd" viewBox="0 0 8267.72 11692.91" xmlns:xlink="http://www.w3.org/1999/xlink" xmlns:xodm="http://www.corel.com/coreldraw/odm/2003">
 <defs>
  <style type="text/css">
   
    .str0 {stroke:#2D2A2B;stroke-width:7.87;stroke-miterlimit:2.61313}
    .fil1 {fill:#157575}
    .fil2 {fill:#198585}
    .fil3 {fill:#B54F1F}
    .fil0 {fill:#DB7729}
    .fil4 {fill:#E6E7E8;fill-rule:nonzero}
   
  </style>
 </defs>
 <g id="SvgjsG1035">
  <metadata id="SvgjsMetadata1034"></metadata>
  <path class="fil0 str0" d="M2436.75 7425.38l286.96 -382.35c11.98,0.19 20.76,7.15 22.04,30.06l-4.01 362.71c-1.69,47.93 -34.37,62.94 -130.65,62.76l-182.16 1.36c-15.01,-22.56 -14.05,-48.77 7.81,-74.54z"></path>
  <path class="fil1 str0" d="M4200.25 2834.42c-129.91,-8.6 -187.51,39.05 -202,120.23l0 2351.8 860.89 -990.74 0 -783.93 1667.06 4.81c30.98,-7.85 52.96,-24.87 62.29,-54.77l-17.2 -571.66c-13.98,-51.02 -44.14,-80.14 -85.37,-94.29l-2285.66 18.55z"></path>
  <path class="fil0 str0" d="M2000.81 3806.62l1998.44 -0.37 216.43 450.88 -69.13 111.22 -1343.13 0 -2.01 1427.78c326.61,26.87 677.35,-109.7 1052.06,-408.8 23.15,5.54 34.93,22.45 18,68.09l-1510.95 1941.8c-38.72,60.16 -101.55,94.13 -164.32,98.19l-199.39 0 4.02 -3688.8z"></path>
  <path class="fil2 str0" d="M5046.28 4305.5c476.73,-0.4 953.46,-0.8 1430.19,-1.2 38,2.05 55.37,26.94 48.49,78.69l-5.8 702.84 -658.89 2.4 -54.11 -90.18 -226.04 0 -254.9 -57.71 -379.94 206.81 6.61 945.65c0.94,135.17 -33.99,169.75 -93.18,170.13l-745.46 4.81 865.69 1139.83c21.38,36.8 12.29,65.8 -28.85,86.57l-822.41 0 -792.29 -1048.49c-22.99,-58.43 -18.92,-113.79 22.79,-168.29 630.96,-824.46 1173.4,-1470.57 1688.1,-1971.85z"></path>
  <path class="fil3 str0" d="M2010.94 3806.25l1988.32 0 216.43 450.88c14.12,64.95 -19.09,94.39 -69.13,111.22l-1343.13 0 -3.05 458.22 -800.77 1.76 -0.74 -1006.81c0.41,-16.61 -3.05,-15.27 12.08,-15.27z"></path>
  <g id="SvgjsG1033">
   <path class="fil4" d="M2009.63 4805.97c31.07,11.85 58.03,29.17 80.87,51.93l-90.46 163.61c-19.19,-12.33 -37.01,-21.34 -53.45,-27.03 -16.45,-5.69 -33.81,-8.54 -52.09,-8.54 -45.69,0 -81.78,15.18 -108.28,45.53 -26.5,30.35 -39.75,74.93 -39.75,133.73l0 341.44 -215.2 0 0 -702.8 187.78 0 16.44 88.2c43.87,-69.24 104.18,-103.85 180.93,-103.85 31.07,0 62.14,5.93 93.2,17.78z"></path>
   <path class="fil4" d="M2373.54 4998.74c-26.96,22.76 -42.27,54.54 -45.93,95.32l298.8 0c-2.74,-40.78 -17.13,-72.56 -43.17,-95.32 -26.04,-22.76 -60.99,-34.15 -104.85,-34.15 -43.86,0 -77.9,11.38 -104.85,34.15zm289.88 -167.16c53.92,28.92 95.26,69.7 124.04,122.35 28.79,52.63 43.19,114.05 43.19,184.24 0,22.76 -2.29,50.74 -6.85,83.94l-497.54 0c6.39,36.04 25.12,65.2 56.19,87.5 31.07,22.28 70.81,33.43 119.24,33.43 33.81,0 66.7,-5.22 98.69,-15.65 31.98,-10.44 59.4,-25.14 82.24,-44.1l112.4 125.2c-38.39,36.99 -83.85,65.44 -136.39,85.36 -52.55,19.92 -108.51,29.87 -167.91,29.87 -78.58,0 -146.66,-14.94 -204.22,-44.81 -57.57,-29.87 -101.89,-72.31 -132.96,-127.33 -31.07,-55.01 -46.6,-119.98 -46.6,-194.9 0,-74.93 15.31,-136.11 45.92,-192.07 30.61,-55.96 73.33,-99.35 128.15,-130.17 54.83,-30.83 118.33,-46.24 190.52,-46.24 72.19,0 137.98,14.46 191.89,43.39z"></path>
   <path class="fil4" d="M3402.22 5284c30.15,-32.73 45.23,-75.65 45.23,-128.76 0,-53.11 -15.08,-96.03 -45.23,-128.75 -30.16,-32.72 -69,-49.07 -116.51,-49.07 -47.52,0 -86.12,16.59 -115.82,49.79 -29.7,33.19 -44.55,75.88 -44.55,128.04 0,52.17 14.85,94.85 44.55,128.04 29.7,33.19 68.31,49.79 115.82,49.79 47.51,0 86.35,-16.36 116.51,-49.07zm257.68 -773.23l0 995.87 -186.41 0 -13.71 -83.94c-57.56,65.44 -132.5,98.16 -224.78,98.16 -63.06,0 -119.03,-15.41 -167.91,-46.23 -48.88,-30.83 -87.03,-73.98 -114.45,-129.46 -27.41,-55.48 -41.11,-118.79 -41.11,-189.93 0,-71.13 13.7,-134.44 41.11,-189.93 27.42,-55.49 65.57,-98.64 114.45,-129.46 48.88,-30.82 104.86,-46.24 167.91,-46.24 83.15,0 153.05,27.03 209.7,81.09l0 -359.93 215.2 0z"></path>
   <path class="fil4" d="M4108.1 4803.84l183.67 0 0 179.26 -183.67 0 0 523.54 -217.93 0 0 -523.54 -119.25 0 0 -179.26 119.25 0 0 -36.99c0,-62.59 13.02,-114.76 39.05,-156.49 26.05,-41.73 60.09,-72.56 102.13,-92.48 41.28,-19.56 85.65,-29.51 133.1,-29.86l4.72 0c74.92,0.4 139.09,22.21 192.51,65.43l-72.65 140.84c-16.44,-10.44 -31.3,-18.02 -44.55,-22.76 -13.24,-4.74 -28.09,-7.11 -44.54,-7.11 -28.33,0 -50.72,8.3 -67.16,24.9 -16.45,16.6 -24.68,42.44 -24.68,77.53l0 36.99z"></path>
   <path class="fil4" d="M4841.41 5284c30.15,-32.73 45.23,-75.65 45.23,-128.76 0,-53.11 -15.08,-96.03 -45.23,-128.75 -30.16,-32.72 -69,-49.07 -116.51,-49.07 -47.52,0 -86.12,16.59 -115.82,49.79 -29.7,33.19 -44.55,75.88 -44.55,128.04 0,52.17 14.85,94.85 44.55,128.04 29.7,33.19 68.31,49.79 115.82,49.79 47.52,0 86.35,-16.36 116.51,-49.07zm257.68 -480.16l0 702.8 -186.41 0 -13.71 -83.94c-57.56,65.44 -132.5,98.16 -224.78,98.16 -63.06,0 -119.03,-15.41 -167.91,-46.23 -48.89,-30.83 -87.03,-73.98 -114.46,-129.46 -27.41,-55.48 -41.11,-118.79 -41.11,-189.93 0,-71.13 13.7,-134.44 41.11,-189.93 27.43,-55.49 65.56,-98.64 114.46,-129.46 48.88,-30.82 104.85,-46.24 167.91,-46.24 45.69,0 87.72,8.3 126.1,24.9 38.38,16.6 71.27,40.55 98.68,71.85l13.71 -82.52 186.41 0 0 0z"></path>
   <path class="fil4" d="M5398.57 5477.48c-56.2,-29.88 -99.6,-72.33 -130.21,-127.33 -30.62,-55.01 -45.91,-119.5 -45.91,-193.48 0,-73.98 15.53,-137.29 46.61,-192.78 31.06,-55.48 74.46,-98.63 130.2,-129.46 55.74,-30.83 120.17,-46.24 193.26,-46.24 50.26,0 98.24,9.25 143.93,27.75 45.69,18.49 86.34,45.76 121.98,81.8l-119.24 135.15c-38.38,-36.99 -83.61,-55.48 -135.69,-55.48 -49.35,0 -89.55,16.36 -120.62,49.07 -31.07,32.72 -46.61,75.64 -46.61,128.75 0,53.11 15.31,96.03 45.92,128.76 30.62,32.71 71.05,49.08 121.31,49.08 55.74,0 103.26,-20.39 142.56,-61.18l121.98 133.73c-75.85,77.78 -166.3,116.66 -271.39,116.66 -75.85,0 -141.87,-14.94 -198.06,-44.81z"></path>
   <path class="fil4" d="M6181.21 4998.74c-26.95,22.76 -42.26,54.54 -45.9,95.32l298.8 0c-2.74,-40.78 -17.14,-72.56 -43.19,-95.32 -26.04,-22.76 -61,-34.15 -104.85,-34.15 -43.85,0 -77.89,11.38 -104.85,34.15l-0.01 0zm289.91 -167.16c53.91,28.92 95.26,69.7 124.04,122.35 28.78,52.63 43.17,114.05 43.17,184.24 0,22.76 -2.29,50.74 -6.85,83.94l-497.55 0c6.39,36.04 25.13,65.2 56.19,87.5 31.07,22.28 70.82,33.43 119.24,33.43 33.82,0 66.71,-5.22 98.7,-15.65 31.98,-10.44 59.39,-25.14 82.23,-44.1l112.41 125.2c-38.38,36.99 -83.84,65.44 -136.39,85.36 -52.55,19.92 -108.51,29.87 -167.91,29.87 -78.59,0 -146.66,-14.94 -204.22,-44.81 -57.57,-29.87 -101.89,-72.31 -132.96,-127.33 -31.07,-55.01 -46.59,-119.98 -46.59,-194.9 0,-74.93 15.31,-136.11 45.92,-192.07 30.61,-55.96 73.33,-99.35 128.15,-130.17 54.83,-30.83 118.33,-46.24 190.52,-46.24 72.19,0 137.98,14.46 191.9,43.39l0 0z"></path>
  </g>
 </g>
</svg><style>@media (prefers-color-scheme: light) { :root { filter: none; } }
@media (prefers-color-scheme: dark) { :root { filter: none; } }
</style></svg>