<svg width="120" height="121" viewBox="0 0 120 121" fill="none" xmlns="http://www.w3.org/2000/svg">
<circle opacity="0.15" cx="60" cy="60.4062" r="60" fill="#92CE8E"/>
<circle opacity="0.3" cx="59.9998" cy="60.408" r="51.1111" fill="#92CE8E"/>
<circle cx="59.9994" cy="60.4056" r="41.3333" fill="#4BB543"/>
<path d="M73.5961 46.3365L56.0009 63.9317L46.8797 54.8182C44.8998 52.8384 41.6874 52.8384 39.7075 54.8182C37.7277 56.7981 37.7277 60.0105 39.7075 61.9904L52.5034 74.7862C54.4293 76.7122 57.557 76.7122 59.483 74.7862L80.7606 53.5086C82.7404 51.5287 82.7404 48.3163 80.7606 46.3365C78.7807 44.3566 75.576 44.3566 73.5961 46.3365Z" fill="white"/>
<circle cx="31.1093" cy="18.1845" r="3.55556" fill="#92CE8E"/>
<circle cx="23.9975" cy="19.0747" r="1.77778" fill="#92CE8E"/>
<circle cx="15.1098" cy="47.518" r="1.77778" fill="#92CE8E"/>
<circle cx="17.7758" cy="43.9614" r="1.77778" fill="#92CE8E"/>
<circle cx="114.665" cy="62.6293" r="1.77778" fill="#92CE8E"/>
<circle cx="11.9984" cy="78.1849" r="1.33333" fill="#92CE8E"/>
<circle cx="84.8868" cy="100.408" r="1.33333" fill="#92CE8E"/>
<circle cx="102.221" cy="89.2951" r="0.888889" fill="#92CE8E"/>
<circle cx="103.109" cy="51.9612" r="0.888889" fill="#92CE8E"/>
<circle cx="105.332" cy="49.7413" r="0.444444" fill="#92CE8E"/>
<circle cx="91.9982" cy="21.296" r="0.444444" fill="#92CE8E"/>
</svg>
